Coordinates
version=1
nRows=26
nColumns=22
inDegrees=yes

Units are S.I. units (second, meters, Newtons, ...)
If the header above contains a line with 'inDegrees', this indicates whether rotational values are in degrees (yes) or radians (no).

endheader
time	pelvis_tilt	pelvis_list	pelvis_rotation	pelvis_tx	pelvis_ty	pelvis_tz	hip_flexion_r	hip_adduction_r	hip_rotation_r	knee_angle_r	ankle_angle_r	subtalar_angle_r	hip_flexion_l	hip_adduction_l	hip_rotation_l	knee_angle_l	ankle_angle_l	subtalar_angle_l	lumbar_extension	lumbar_bending	lumbar_rotation
      3.94000000	     -4.46290575	      1.42688461	    -83.98643404	      0.08108744	      0.93613996	      0.98451887	      1.06034218	      8.94383985	     10.66068314	    -31.06693999	     14.83504044	     -3.40906385	     28.23298796	     -5.27452961	      2.60328675	    -22.44667896	      1.79687206	      1.38981170	     -4.35450987	      0.99575905	      6.79810891
      3.95000000	     -4.44637451	      1.47389270	    -84.13261791	      0.08425935	      0.93694061	      0.99077850	      1.57593416	      8.84937348	     10.41709836	    -32.47013238	     13.91741416	     -3.16465199	     28.03256122	     -5.14601084	      2.47756072	    -22.76427171	      1.36423457	      1.04784002	     -4.23434865	      0.94502500	      6.64730922
      3.96000000	     -4.40137083	      1.50856962	    -84.30142891	      0.08738991	      0.93776270	      0.99695269	      2.16533609	      8.72150333	     10.12763069	    -33.98223566	     12.88838986	     -2.92275273	     27.78464392	     -4.99470458	      2.35104008	    -23.03541628	      1.02319319	      0.75874760	     -4.13684553	      0.86422992	      6.51093130
      3.97000000	     -4.34834714	      1.53820281	    -84.48850127	      0.09051380	      0.93854288	      1.00301375	      2.84591162	      8.56909945	      9.76850887	    -35.60674558	     11.76345456	     -2.61669565	     27.51133295	     -4.83813862	      2.19959264	    -23.26969911	      0.78889773	      0.42488241	     -4.05423602	      0.78758492	      6.38016544
      3.98000000	     -4.27434556	      1.55471526	    -84.69732069	      0.09357949	      0.93928268	      1.00896793	      3.59786554	      8.37865841	      9.35740950	    -37.32450946	     10.54494123	     -2.21599177	     27.20580780	     -4.67070415	      2.00913738	    -23.47357169	      0.64370731	      0.07598869	     -3.99567094	      0.69225338	      6.24872304
      3.99000000	     -4.18435144	      1.55378360	    -84.92232694	      0.09659762	      0.93996748	      1.01480163	      4.40731238	      8.15043741	      8.90549990	    -39.11431070	      9.24366621	     -1.63129063	     26.87787848	     -4.49549153	      1.77630920	    -23.66754645	      0.59448431	     -0.31196735	     -3.96729014	      0.58772785	      6.10539447
      4.00000000	     -4.07146203	      1.53591426	    -85.16619570	      0.09957375	      0.94058854	      1.02050624	      5.26641759	      7.86845099	      8.41443172	    -40.95986071	      7.91984500	     -0.91120075	     26.52748196	     -4.30739490	      1.48727301	    -23.84979189	      0.62634055	     -0.67161245	     -3.96840613	      0.46743279	      5.95686212
      4.01000000	     -3.93532254	      1.50384233	    -85.42807161	      0.10250505	      0.94114102	      1.02607699	      6.16805268	      7.52241578	      7.87834730	    -42.84137876	      6.63629894	     -0.08608699	     26.16081118	     -4.10593539	      1.14750219	    -24.02394284	      0.71476134	     -1.00139956	     -3.99555692	      0.33060652	      5.81375719
      4.02000000	     -3.79829222	      1.42895259	    -85.67995938	      0.10541865	      0.94167357	      1.03151716	      7.04776865	      7.15394801	      7.35611329	    -44.70056652	      5.43899648	      0.99112152	     25.76471201	     -3.89614299	      0.83399837	    -24.21707247	      0.91938697	     -1.35553215	     -4.07870662	      0.20798489	      5.62227175
      4.03000000	     -3.62377137	      1.35035887	    -85.93634968	      0.10830235	      0.94211832	      1.03681221	      7.95203580	      6.70322271	      6.81165244	    -46.55305402	      4.47334209	      1.95699508	     25.38382003	     -3.65513796	      0.46129525	    -24.43605998	      1.16595721	     -1.64705151	     -4.17606097	      0.05121541	      5.40270318
      4.04000000	     -3.44903123	      1.24191864	    -86.18274952	      0.11116306	      0.94255843	      1.04197946	      8.82745737	      6.21677516	      6.25871010	    -48.34079145	      3.77097155	      2.89500731	     24.97526419	     -3.40686611	      0.11549789	    -24.65084477	      1.47288673	     -1.91268517	     -4.31201341	     -0.09405799	      5.16518218
      4.05000000	     -3.27949280	      1.11554158	    -86.41945891	      0.11398427	      0.94299421	      1.04701935	      9.67461100	      5.70448976	      5.71007234	    -50.03633382	      3.36771400	      3.73182780	     24.55286328	     -3.15701445	     -0.19550529	    -24.86200937	      1.83745254	     -2.15098290	     -4.47021409	     -0.22411425	      4.91274921
      4.06000000	     -3.09815527	      0.98048842	    -86.64862906	      0.11675457	      0.94343298	      1.05192578	     10.49534783	      5.15231110	      5.17404100	    -51.62213663	      3.28857827	      4.28578367	     24.13042076	     -2.89398460	     -0.50738757	    -25.07522543	      2.20596075	     -2.33478436	     -4.64227256	     -0.36300744	      4.63187284
      4.07000000	     -2.92935569	      0.83570463	    -86.86943299	      0.11946582	      0.94391295	      1.05673392	     11.27374758	      4.58892852	      4.64531143	    -53.05432524	      3.48346436	      4.57693400	     23.68677315	     -2.63816979	     -0.78374797	    -25.25674408	      2.60176181	     -2.48106688	     -4.82046043	     -0.48379537	      4.35397402
      4.08000000	     -2.77807150	      0.68803646	    -87.08569863	      0.12212077	      0.94443591	      1.06141533	     12.01091673	      4.04522980	      4.18067498	    -54.31599086	      3.92424799	      4.66320217	     23.23611946	     -2.39151761	     -1.01025959	    -25.41605172	      3.02749903	     -2.60557951	     -5.00280119	     -0.57683701	      4.06895224
      4.09000000	     -2.65720820	      0.54923358	    -87.29718336	      0.12468092	      0.94501063	      1.06600070	     12.71368226	      3.53519169	      3.75689190	    -55.38018703	      4.53932170	      4.64810523	     22.79377469	     -2.18261573	     -1.25057694	    -25.55209913	      3.41795646	     -2.71267835	     -5.16676705	     -0.63634934	      3.77468708
      4.10000000	     -2.56364842	      0.41502501	    -87.50429979	      0.12715806	      0.94565560	      1.07049279	     13.37192593	      3.06712297	      3.38811202	    -56.23212776	      5.26683184	      4.51542170	     22.34435111	     -2.00204590	     -1.47958855	    -25.64977247	      3.78579121	     -2.80193229	     -5.31839654	     -0.66515692	      3.48003943
      4.11000000	     -2.50971669	      0.28600552	    -87.70678286	      0.12952843	      0.94637138	      1.07489114	     13.97811426	      2.67390144	      3.09732363	    -56.85503613	      6.06028980	      4.31586748	     21.88360348	     -1.86223596	     -1.67990868	    -25.69926821	      4.15335619	     -2.88070047	     -5.45617502	     -0.65079252	      3.17124137
      4.12000000	     -2.44380237	      0.14181969	    -87.90852934	      0.13183109	      0.94719740	      1.07920079	     14.51914402	      2.27357700	      2.83268041	    -57.26370789	      6.82487422	      3.86482840	     21.38228297	     -1.71660808	     -1.91727686	    -25.68919636	      4.42043715	     -2.91829686	     -5.60776766	     -0.65221174	      2.88519780
      4.13000000	     -2.44218344	      0.00837322	    -88.09022432	      0.13404386	      0.94806335	      1.08342566	     15.00377081	      1.97990309	      2.62600283	    -57.43259378	      7.60900179	      3.54583692	     20.88437033	     -1.63063990	     -2.09985207	    -25.64452231	      4.72010935	     -2.96147613	     -5.73664804	     -0.58229341	      2.58450427
      4.14000000	     -2.48785400	     -0.09214879	    -88.25269816	      0.13615981	      0.94890291	      1.08750708	     15.47460482	      1.75792213	      2.44236271	    -57.39085786	      8.36808950	      3.39850164	     20.43953206	     -1.59642069	     -2.27258896	    -25.60368866	      5.01589421	     -3.01355540	     -5.83093311	     -0.46620721	      2.27675059
      4.15000000	     -2.49448967	     -0.24862634	    -88.39534005	      0.13825273	      0.94991174	      1.09156296	     15.80884255	      1.49931074	      2.26749469	    -57.12559755	      9.07560413	      3.15603257	     19.87225109	     -1.51245817	     -2.42567765	    -25.44448286	      5.23108212	     -3.00310248	     -5.98288447	     -0.39403403	      1.94889861
      4.16000000	     -2.54663299	     -0.37841736	    -88.50242411	      0.14029049	      0.95086657	      1.09549846	     16.11382385	      1.29490244	      2.07537672	    -56.66252067	      9.73845078	      3.00784530	     19.36177959	     -1.47852079	     -2.57882657	    -25.30696693	      5.46621892	     -2.99514363	     -6.10775358	     -0.27239872	      1.59062905
      4.17000000	     -2.60420565	     -0.48742334	    -88.57577258	      0.14228763	      0.95178686	      1.09935558	     16.37941108	      1.09130224	      1.85569963	    -56.01479329	     10.36533587	      2.93738513	     18.86920983	     -1.44214615	     -2.69790314	    -25.14286439	      5.68438602	     -2.97865235	     -6.20642703	     -0.14741422	      1.20894087
      4.18000000	     -2.66385716	     -0.59369147	    -88.62035648	      0.14424188	      0.95268256	      1.10313925	     16.58599941	      0.88143661	      1.60536997	    -55.19481665	     10.95684102	      2.90107748	     18.37935924	     -1.40638425	     -2.80393978	    -24.96146052	      5.89600078	     -2.94998058	     -6.30348514	     -0.02298841	      0.80113090
      4.19000000	     -2.72105723	     -0.68423380	    -88.63710158	      0.14616041	      0.95352617	      1.10684321	     16.74833241	      0.66071800	      1.32669549	    -54.21530931	     11.51317076	      2.88325959	     17.90593168	     -1.36370565	     -2.88995935	    -24.76085180	      6.10142988	     -2.91924647	     -6.38468262	      0.09966091	      0.37779858
